<svg xmlns="http://www.w3.org/2000/svg" viewBox="0 0 512 512"><rect width="512" height="512" rx="112" fill="#2B44D6"/><g fill="none" stroke="#fff" stroke-width="30" stroke-linecap="round" stroke-linejoin="round"><path d="M136 176v-28a20 20 0 0 1 20-20h28M328 128h28a20 20 0 0 1 20 20v28M376 336v28a20 20 0 0 1-20 20h-28M184 384h-28a20 20 0 0 1-20-20v-28"/></g><g fill="#fff"><rect x="186" y="186" width="56" height="56" rx="8"/><rect x="270" y="186" width="56" height="56" rx="8"/><rect x="186" y="270" width="56" height="56" rx="8"/><path d="M270 270h56v56h-24v-32h-32z"/></g></svg>
